<svg width="157" height="28" viewBox="0 0 157 28" fill="none" xmlns="http://www.w3.org/2000/svg">
<g clip-path="url(#clip0_148_462)">
<path d="M65.8016 0.8606H61.5857L61.5811 0.877405H65.8062L65.8016 0.8606Z" fill="#63C0B2"/>
<path d="M80.6128 0.8606H77.0989L77.0952 0.877405H80.6082L80.6128 0.8606Z" fill="#63C0B2"/>
<path d="M50.2338 0.8606H46.6479L46.6526 0.877405H50.2375L50.2338 0.8606Z" fill="#63C0B2"/>
<path d="M133.351 0.8606H130V0.877405H133.351V0.8606Z" fill="#63C0B2"/>
<path d="M116.126 0.8606H112.54V0.877405H116.137L116.126 0.8606Z" fill="#63C0B2"/>
<path d="M19.8194 24.0906C20.6239 22.8559 21.027 21.5415 21.027 20.1458C21.027 18.7501 20.6608 17.495 19.9283 16.416C19.1958 15.3369 18.0602 14.4453 16.5233 13.7413C15.466 13.2646 13.5168 12.7065 10.6763 12.0687C7.83496 11.431 6.07848 10.8075 5.40597 10.199C4.72146 9.59043 4.3792 8.81562 4.3792 7.87277C4.3792 6.78751 4.8626 5.85969 5.8294 5.09108C6.7962 4.32158 8.33681 3.93683 10.4512 3.93683C12.5656 3.93683 14.0158 4.3605 15.0546 5.20694C16.0934 6.05428 16.7031 7.3067 16.883 8.96422L20.2346 8.71391C20.1746 7.17491 19.7419 5.79778 18.9375 4.58162C18.1321 3.36545 16.9827 2.44383 15.4873 1.81761C13.9919 1.1914 12.2649 0.878296 10.3073 0.878296C8.52962 0.878296 6.91336 1.17637 5.4604 1.77251C4.0065 2.36865 2.90225 3.24251 2.14486 4.39322C1.38839 5.54481 1.01016 6.78132 1.01016 8.10539C1.01016 9.31005 1.3192 10.3988 1.93821 11.37C2.5563 12.342 3.49635 13.1567 4.75836 13.8121C5.73162 14.3251 7.4309 14.8708 9.85713 15.4492C12.2834 16.0277 13.8507 16.454 14.5601 16.7282C15.6653 17.1457 16.4578 17.6613 16.9384 18.276C17.419 18.8907 17.6589 19.6089 17.6589 20.4315C17.6589 21.2541 17.4098 21.9908 16.9107 22.6772C16.4126 23.3636 15.6524 23.9022 14.6312 24.2967C13.6099 24.6903 12.4328 24.8866 11.0998 24.8866C9.5979 24.8866 8.24641 24.6275 7.04529 24.1083C5.84416 23.5891 4.95762 22.9098 4.38751 22.0687C3.81647 21.2275 3.45299 20.152 3.29709 18.8394L0 19.126C0.047971 20.8791 0.531372 22.4508 1.4502 23.8403C2.36903 25.2298 3.63657 26.2708 5.25191 26.9625C6.86724 27.6542 8.87003 28 11.2612 28C13.1468 28 14.8433 27.6568 16.3517 26.9714C17.8591 26.2859 19.015 25.3253 19.8203 24.0906H19.8194Z" fill="#9CA3AF"/>
<path d="M77.0951 0.877441L72.9548 18.2991C72.4142 20.5209 71.976 22.4888 71.6393 24.2047C71.2186 21.2055 70.5341 18.0028 69.5848 14.5966L65.8053 0.877441H61.5801L56.5579 19.188C56.438 19.632 56.0413 21.3045 55.3688 24.2047C55.0561 22.3659 54.6843 20.5147 54.2516 18.6511L50.2377 0.877441H46.6528L53.6575 28H57.2249L62.8283 7.32177C63.0682 6.44525 63.3265 5.38475 63.6032 4.13764C63.6872 4.533 63.9639 5.59438 64.4316 7.32177L69.9991 28H73.3681L80.608 0.877441H77.0951Z" fill="#9CA3AF"/>
<path d="M106.451 21.6167C107.532 19.5188 108.072 17.1413 108.072 14.4834C108.072 11.8255 107.559 9.51616 106.532 7.44825C105.505 5.38033 104.012 3.76792 102.054 2.61191C100.096 1.45589 97.8979 0.877441 95.4597 0.877441C91.7355 0.877441 88.6967 2.10864 86.3424 4.56926C83.9882 7.03077 82.811 10.4369 82.811 14.7868C82.811 17.0873 83.3157 19.2684 84.3249 21.3302C85.3341 23.3928 86.8175 25.0193 88.7751 26.2107C90.7327 27.403 92.9551 27.9983 95.4422 27.9983C97.7365 27.9983 99.8749 27.4587 101.856 26.3806C103.838 25.3015 105.37 23.7138 106.451 21.6159V21.6167ZM95.4237 25.0317C92.8407 25.0317 90.694 24.1234 88.9827 22.3049C87.2714 20.4873 86.4153 17.9992 86.4153 14.8407C86.4153 10.896 87.3074 8.07977 89.0906 6.39306C90.8748 4.70636 93.003 3.86345 95.4782 3.86345C97.2199 3.86345 98.79 4.30127 100.189 5.17779C101.589 6.05342 102.652 7.28727 103.379 8.87845C104.106 10.4696 104.469 12.3323 104.469 14.4657C104.469 17.8391 103.619 20.443 101.919 22.2792C100.219 24.1145 98.0548 25.0326 95.4237 25.0326V25.0317Z" fill="#9CA3AF"/>
<path d="M130 0.877441V22.1687L116.137 0.877441H112.54V28H115.892V6.67344L129.765 28H133.351V0.877441H130Z" fill="#9CA3AF"/>
<path d="M141.135 24.7991L142.738 22.8939L157.567 4.07838V0.877441H138.648V4.07838H153.387C152.521 4.99116 151.609 6.06404 150.648 7.29789L137.116 24.67V28H157.999V24.7991H141.135Z" fill="#9CA3AF"/>
<path d="M35.85 7.23859C36.1083 7.98067 36.3989 8.78112 36.72 9.64084L39.2744 16.4929L40.9876 21.0418L43.6389 27.9991H47.6205L39.2145 7.23859H35.8491H35.85Z" fill="#B1EDFF"/>
<path d="M30.8807 16.4929L33.4351 9.64084C33.7571 8.78112 34.0467 7.98067 34.305 7.23859H34.0716C33.8761 7.89576 33.6602 8.55116 33.4231 9.2039L30.7229 16.4929L30.531 17.036H30.5218L30.7229 16.4929L33.4231 9.2039C33.6602 8.55027 33.8761 7.89576 34.0716 7.23859H30.9397L22.5337 27.9991H26.5153L29.1666 21.0418L30.8797 16.4929H30.8807Z" fill="#62CCD0"/>
<path d="M30.5317 17.036L30.7236 16.4929L30.5225 17.036H30.5317Z" fill="#57B0D5"/>
<path d="M30.5225 17.036L30.7236 16.4929L30.5225 17.036Z" fill="#57B0D5"/>
<path d="M34.9992 5.02562C36.194 5.02562 37.1626 4.09701 37.1626 2.95151C37.1626 1.80601 36.194 0.877403 34.9992 0.877403C33.8045 0.877403 32.8359 1.80601 32.8359 2.95151C32.8359 4.09701 33.8045 5.02562 34.9992 5.02562Z" fill="#FFDC47"/>
</g>
<defs>
<clipPath id="clip0_148_462">
<rect width="158" height="28" fill="white"/>
</clipPath>
</defs>
</svg>
