<svg xmlns="http://www.w3.org/2000/svg" width="882" height="781" viewBox="0 0 882 781" fill="none">
<g clip-path="url(#clip0_81_5295)">
<path opacity="0.5" d="M689.351 0H192.573C181.644 0 172.783 8.86687 172.783 19.8047V322.113C172.783 333.051 181.644 341.917 192.573 341.917H689.351C700.281 341.917 709.141 333.051 709.141 322.113V19.8047C709.141 8.86687 700.281 0 689.351 0Z" fill="#D6E1F3"/>
<path d="M829.477 526.693H769.712V689.448H829.477V526.693Z" fill="#E9C6A0"/>
<path d="M149.73 618.245H89.9653V781H149.73V618.245Z" fill="#B4E0F0"/>
<path d="M120.298 416.387C138.22 416.387 152.75 401.847 152.75 383.911C152.75 365.975 138.22 351.435 120.298 351.435C102.375 351.435 87.8457 365.975 87.8457 383.911C87.8457 401.847 102.375 416.387 120.298 416.387Z" fill="#E2ECD1"/>
<path d="M556.204 431.142C574.127 431.142 588.656 416.602 588.656 398.666C588.656 380.73 574.127 366.19 556.204 366.19C538.282 366.19 523.752 380.73 523.752 398.666C523.752 416.602 538.282 431.142 556.204 431.142Z" fill="#F9E796"/>
<path d="M799.595 327.369C817.517 327.369 832.047 312.829 832.047 294.893C832.047 276.957 817.517 262.417 799.595 262.417C781.672 262.417 767.143 276.957 767.143 294.893C767.143 312.829 781.672 327.369 799.595 327.369Z" fill="#B4E0F0"/>
<path d="M139.725 472.492L89.9346 439.412L-0.0190395 575.006L49.7714 608.086L139.725 472.492Z" fill="#C1AED4"/>
<path d="M591.653 482.52L541.862 449.44L451.909 585.034L501.699 618.114L591.653 482.52Z" fill="#B5DAAC"/>
<path d="M780.05 418.021L810.849 366.766L671.472 282.892L640.674 334.147L780.05 418.021Z" fill="#D1E4A2"/>
<path d="M150.959 561.687L202.716 531.783L149.414 439.393L97.6566 469.297L150.959 561.687Z" fill="#E8BFD9"/>
<path d="M830.248 464.196L882.005 434.292L828.703 341.902L776.946 371.806L830.248 464.196Z" fill="#EFC6DB"/>
<path d="M172.792 480.068L202.674 531.864L294.996 478.523L265.114 426.727L172.792 480.068Z" fill="#E7E3DC"/>
<path d="M512.216 716.292H409.064C400.829 716.292 402.105 708.539 411.915 698.965L476.894 635.553C486.705 625.979 501.318 618.226 509.553 618.226H612.705C620.94 618.226 619.664 625.979 609.854 635.553L544.875 698.965C535.064 708.539 520.451 716.292 512.216 716.292Z" fill="#85A1C9"/>
<path d="M149.73 439.402H89.9653V602.157H149.73V439.402Z" fill="#E9C6A0"/>
<path d="M647.102 556.425L684.485 509.762L601.312 443.03L563.928 489.693L647.102 556.425Z" fill="#D5DAEE"/>
<path d="M601.375 443.08L541.928 449.238L558.674 611.129L618.121 604.97L601.375 443.08Z" fill="#E3B3A8"/>
<path d="M684.443 509.617L637.814 472.206L536.084 599.189L582.712 636.6L684.443 509.617Z" fill="#E8B4D2"/>
<path d="M829.477 341.917H769.712V504.673H829.477V341.917Z" fill="#F8E595"/>
<path d="M881.995 433.944L832.204 400.864L783.565 474.182L833.355 507.262L881.995 433.944Z" fill="#E7C9C5"/>
<path d="M524.972 569.512H324.97C316.371 569.512 309.4 576.488 309.4 585.093V700.636C309.4 709.241 316.371 716.217 324.97 716.217H524.972C533.57 716.217 540.541 709.241 540.541 700.636V585.093C540.541 576.488 533.57 569.512 524.972 569.512Z" fill="#C3D5EE"/>
<rect x="234" y="53" width="286" height="32" rx="16" fill="white"/>
<rect x="234" y="111" width="367" height="32" rx="16" fill="white"/>
<rect x="234" y="171" width="286" height="32" rx="16" fill="white"/>
</g>
<defs>
<clipPath id="clip0_81_5295">
<rect width="882" height="781" fill="white"/>
</clipPath>
</defs>
</svg>