<svg width="92" height="107" viewBox="0 0 92 107" fill="none" xmlns="http://www.w3.org/2000/svg">
<g clip-path="url(#clip0_81_7225)">
<path d="M48.8315 27.6642C49.7796 30.5007 50.842 33.561 52.0239 36.845L61.3922 63.03L67.6749 80.4147L77.3965 107.002H91.9999L61.1732 27.6642H48.834H48.8315Z" fill="#B1EDFF"/>
<path d="M30.6078 63.03L39.976 36.845C41.1554 33.5585 42.2204 30.5007 43.1684 27.6642H42.3124C41.5958 30.175 40.8021 32.6785 39.9337 35.1744L30.033 63.0276L29.3288 65.1009H29.2965L30.033 63.0276L39.9337 35.1744C40.8046 32.6785 41.5958 30.175 42.3124 27.6642H30.8292L0 107H14.6035L24.325 80.4122L30.6078 63.0276V63.03Z" fill="#62CCD0"/>
<path d="M29.3263 65.1034L30.0305 63.0276L29.2939 65.1034H29.3263Z" fill="#57B0D5"/>
<path d="M29.2939 65.1034L30.0305 63.0276L29.2939 65.1034Z" fill="#57B0D5"/>
<path d="M45.7137 19.2044C50.0947 19.2044 53.6462 15.6561 53.6462 11.279C53.6462 6.90195 50.0947 3.35364 45.7137 3.35364C41.3327 3.35364 37.7812 6.90195 37.7812 11.279C37.7812 15.6561 41.3327 19.2044 45.7137 19.2044Z" fill="#FFDC47"/>
</g>
<defs>
<clipPath id="clip0_81_7225">
<rect width="92" height="107" fill="white"/>
</clipPath>
</defs>
</svg>
